<mxfile host="Electron" modified="2024-10-13T21:40:08.038Z" agent="Mozilla/5.0 (Windows NT 10.0; Win64; x64) AppleWebKit/537.36 (KHTML, like Gecko) draw.io/24.4.8 Chrome/124.0.6367.207 Electron/30.0.6 Safari/537.36" etag="ZkGrEe4HJWdUMUqp3y57" version="24.4.8" type="device">
  <diagram name="PÃ¡gina-1" id="rwDMr9ibTHkkpmLGOVAx">
    <mxGraphModel dx="1816" dy="1751" grid="1" gridSize="10" guides="1" tooltips="1" connect="1" arrows="1" fold="1" page="1" pageScale="1" pageWidth="827" pageHeight="1169" math="0" shadow="0">
      <root>
        <mxCell id="0" />
        <mxCell id="1" parent="0" />
        <mxCell id="ZVmhbryaEd-11SPqiZsv-36" style="edgeStyle=orthogonalEdgeStyle;rounded=0;orthogonalLoop=1;jettySize=auto;html=1;curved=1;" edge="1" parent="1" source="ZVmhbryaEd-11SPqiZsv-1">
          <mxGeometry relative="1" as="geometry">
            <mxPoint x="250" y="-90" as="targetPoint" />
          </mxGeometry>
        </mxCell>
        <mxCell id="ZVmhbryaEd-11SPqiZsv-39" value="" style="edgeStyle=orthogonalEdgeStyle;rounded=0;orthogonalLoop=1;jettySize=auto;html=1;entryX=0.584;entryY=1.058;entryDx=0;entryDy=0;entryPerimeter=0;endArrow=none;endFill=0;startArrow=diamond;startFill=0;" edge="1" parent="1">
          <mxGeometry relative="1" as="geometry">
            <mxPoint x="513.01" y="233.01599999999985" as="targetPoint" />
            <mxPoint x="147.0044827586207" y="230" as="sourcePoint" />
            <Array as="points">
              <mxPoint x="147" y="270" />
              <mxPoint x="513" y="270" />
            </Array>
          </mxGeometry>
        </mxCell>
        <mxCell id="ZVmhbryaEd-11SPqiZsv-1" value="Album&lt;div&gt;&lt;br&gt;&lt;/div&gt;" style="swimlane;fontStyle=1;align=center;verticalAlign=top;childLayout=stackLayout;horizontal=1;startSize=26;horizontalStack=0;resizeParent=1;resizeParentMax=0;resizeLast=0;collapsible=1;marginBottom=0;whiteSpace=wrap;html=1;" vertex="1" parent="1">
          <mxGeometry x="-10" y="80" width="310" height="150" as="geometry" />
        </mxCell>
        <mxCell id="ZVmhbryaEd-11SPqiZsv-2" value="- edicion:int&lt;div&gt;-nroCanciones : int&lt;/div&gt;&lt;div&gt;- artista:Artista&lt;/div&gt;&lt;div&gt;-descripcion String&lt;/div&gt;" style="text;strokeColor=none;fillColor=none;align=left;verticalAlign=top;spacingLeft=4;spacingRight=4;overflow=hidden;rotatable=0;points=[[0,0.5],[1,0.5]];portConstraint=eastwest;whiteSpace=wrap;html=1;" vertex="1" parent="ZVmhbryaEd-11SPqiZsv-1">
          <mxGeometry y="26" width="310" height="64" as="geometry" />
        </mxCell>
        <mxCell id="ZVmhbryaEd-11SPqiZsv-3" value="" style="line;strokeWidth=1;fillColor=none;align=left;verticalAlign=middle;spacingTop=-1;spacingLeft=3;spacingRight=3;rotatable=0;labelPosition=right;points=[];portConstraint=eastwest;strokeColor=inherit;" vertex="1" parent="ZVmhbryaEd-11SPqiZsv-1">
          <mxGeometry y="90" width="310" height="8" as="geometry" />
        </mxCell>
        <mxCell id="ZVmhbryaEd-11SPqiZsv-4" value="+reproducir():void&lt;div&gt;+buscar(keyword:String):List&amp;lt;ElementoReproducible&amp;gt;&lt;/div&gt;&lt;div&gt;&lt;br&gt;&lt;/div&gt;" style="text;strokeColor=none;fillColor=none;align=left;verticalAlign=top;spacingLeft=4;spacingRight=4;overflow=hidden;rotatable=0;points=[[0,0.5],[1,0.5]];portConstraint=eastwest;whiteSpace=wrap;html=1;" vertex="1" parent="ZVmhbryaEd-11SPqiZsv-1">
          <mxGeometry y="98" width="310" height="52" as="geometry" />
        </mxCell>
        <mxCell id="ZVmhbryaEd-11SPqiZsv-37" style="edgeStyle=orthogonalEdgeStyle;rounded=0;orthogonalLoop=1;jettySize=auto;html=1;curved=1;" edge="1" parent="1" source="ZVmhbryaEd-11SPqiZsv-9">
          <mxGeometry relative="1" as="geometry">
            <mxPoint x="400" y="-80" as="targetPoint" />
          </mxGeometry>
        </mxCell>
        <mxCell id="ZVmhbryaEd-11SPqiZsv-9" value="&lt;div&gt;Artista&lt;/div&gt;" style="swimlane;fontStyle=1;align=center;verticalAlign=top;childLayout=stackLayout;horizontal=1;startSize=26;horizontalStack=0;resizeParent=1;resizeParentMax=0;resizeLast=0;collapsible=1;marginBottom=0;whiteSpace=wrap;html=1;" vertex="1" parent="1">
          <mxGeometry x="330" y="80" width="310" height="150" as="geometry" />
        </mxCell>
        <mxCell id="ZVmhbryaEd-11SPqiZsv-10" value="- nombreReal :String&lt;div&gt;-apellido:String&lt;/div&gt;&lt;div&gt;-nacionalidad:String&lt;/div&gt;" style="text;strokeColor=none;fillColor=none;align=left;verticalAlign=top;spacingLeft=4;spacingRight=4;overflow=hidden;rotatable=0;points=[[0,0.5],[1,0.5]];portConstraint=eastwest;whiteSpace=wrap;html=1;" vertex="1" parent="ZVmhbryaEd-11SPqiZsv-9">
          <mxGeometry y="26" width="310" height="64" as="geometry" />
        </mxCell>
        <mxCell id="ZVmhbryaEd-11SPqiZsv-11" value="" style="line;strokeWidth=1;fillColor=none;align=left;verticalAlign=middle;spacingTop=-1;spacingLeft=3;spacingRight=3;rotatable=0;labelPosition=right;points=[];portConstraint=eastwest;strokeColor=inherit;" vertex="1" parent="ZVmhbryaEd-11SPqiZsv-9">
          <mxGeometry y="90" width="310" height="8" as="geometry" />
        </mxCell>
        <mxCell id="ZVmhbryaEd-11SPqiZsv-12" value="+reproducir():void&lt;div&gt;+buscar(keyword:String):List&amp;lt;ElementoReproducible&amp;gt;&lt;/div&gt;&lt;div&gt;&lt;br&gt;&lt;/div&gt;" style="text;strokeColor=none;fillColor=none;align=left;verticalAlign=top;spacingLeft=4;spacingRight=4;overflow=hidden;rotatable=0;points=[[0,0.5],[1,0.5]];portConstraint=eastwest;whiteSpace=wrap;html=1;" vertex="1" parent="ZVmhbryaEd-11SPqiZsv-9">
          <mxGeometry y="98" width="310" height="52" as="geometry" />
        </mxCell>
        <mxCell id="ZVmhbryaEd-11SPqiZsv-35" style="edgeStyle=orthogonalEdgeStyle;rounded=0;orthogonalLoop=1;jettySize=auto;html=1;curved=1;" edge="1" parent="1" source="ZVmhbryaEd-11SPqiZsv-13">
          <mxGeometry relative="1" as="geometry">
            <mxPoint x="190" y="-90" as="targetPoint" />
            <Array as="points">
              <mxPoint x="-185" y="-40" />
              <mxPoint x="191" y="-40" />
            </Array>
          </mxGeometry>
        </mxCell>
        <mxCell id="ZVmhbryaEd-11SPqiZsv-47" style="edgeStyle=orthogonalEdgeStyle;rounded=0;orthogonalLoop=1;jettySize=auto;html=1;entryX=0.252;entryY=1.034;entryDx=0;entryDy=0;entryPerimeter=0;endArrow=diamond;endFill=0;" edge="1" parent="1" source="ZVmhbryaEd-11SPqiZsv-13" target="ZVmhbryaEd-11SPqiZsv-4">
          <mxGeometry relative="1" as="geometry">
            <mxPoint x="-90" y="310" as="targetPoint" />
            <Array as="points">
              <mxPoint x="-185" y="270" />
              <mxPoint x="68" y="270" />
            </Array>
          </mxGeometry>
        </mxCell>
        <mxCell id="ZVmhbryaEd-11SPqiZsv-13" value="Cancion" style="swimlane;fontStyle=1;align=center;verticalAlign=top;childLayout=stackLayout;horizontal=1;startSize=26;horizontalStack=0;resizeParent=1;resizeParentMax=0;resizeLast=0;collapsible=1;marginBottom=0;whiteSpace=wrap;html=1;" vertex="1" parent="1">
          <mxGeometry x="-340" y="80" width="310" height="150" as="geometry" />
        </mxCell>
        <mxCell id="ZVmhbryaEd-11SPqiZsv-14" value="- letra:String&lt;div&gt;- album:Album&lt;/div&gt;" style="text;strokeColor=none;fillColor=none;align=left;verticalAlign=top;spacingLeft=4;spacingRight=4;overflow=hidden;rotatable=0;points=[[0,0.5],[1,0.5]];portConstraint=eastwest;whiteSpace=wrap;html=1;" vertex="1" parent="ZVmhbryaEd-11SPqiZsv-13">
          <mxGeometry y="26" width="310" height="54" as="geometry" />
        </mxCell>
        <mxCell id="ZVmhbryaEd-11SPqiZsv-15" value="" style="line;strokeWidth=1;fillColor=none;align=left;verticalAlign=middle;spacingTop=-1;spacingLeft=3;spacingRight=3;rotatable=0;labelPosition=right;points=[];portConstraint=eastwest;strokeColor=inherit;" vertex="1" parent="ZVmhbryaEd-11SPqiZsv-13">
          <mxGeometry y="80" width="310" height="8" as="geometry" />
        </mxCell>
        <mxCell id="ZVmhbryaEd-11SPqiZsv-16" value="+reproducir():void&lt;div&gt;+buscar(keyword:String):List&amp;lt;ElementoReproducible&amp;gt;&lt;/div&gt;&lt;div&gt;&lt;br&gt;&lt;/div&gt;" style="text;strokeColor=none;fillColor=none;align=left;verticalAlign=top;spacingLeft=4;spacingRight=4;overflow=hidden;rotatable=0;points=[[0,0.5],[1,0.5]];portConstraint=eastwest;whiteSpace=wrap;html=1;" vertex="1" parent="ZVmhbryaEd-11SPqiZsv-13">
          <mxGeometry y="88" width="310" height="62" as="geometry" />
        </mxCell>
        <mxCell id="ZVmhbryaEd-11SPqiZsv-48" style="edgeStyle=orthogonalEdgeStyle;rounded=0;orthogonalLoop=1;jettySize=auto;html=1;dashed=1;dashPattern=8 8;" edge="1" parent="1" source="ZVmhbryaEd-11SPqiZsv-17">
          <mxGeometry relative="1" as="geometry">
            <mxPoint x="90" y="240" as="targetPoint" />
          </mxGeometry>
        </mxCell>
        <mxCell id="ZVmhbryaEd-11SPqiZsv-49" style="edgeStyle=orthogonalEdgeStyle;rounded=0;orthogonalLoop=1;jettySize=auto;html=1;dashed=1;dashPattern=12 12;" edge="1" parent="1" source="ZVmhbryaEd-11SPqiZsv-17">
          <mxGeometry relative="1" as="geometry">
            <mxPoint x="-320" y="240" as="targetPoint" />
          </mxGeometry>
        </mxCell>
        <mxCell id="ZVmhbryaEd-11SPqiZsv-17" value="&lt;div&gt;Musicfy&lt;/div&gt;" style="swimlane;fontStyle=1;align=center;verticalAlign=top;childLayout=stackLayout;horizontal=1;startSize=26;horizontalStack=0;resizeParent=1;resizeParentMax=0;resizeLast=0;collapsible=1;marginBottom=0;whiteSpace=wrap;html=1;" vertex="1" parent="1">
          <mxGeometry x="30" y="390" width="310" height="90" as="geometry" />
        </mxCell>
        <mxCell id="ZVmhbryaEd-11SPqiZsv-19" value="" style="line;strokeWidth=1;fillColor=none;align=left;verticalAlign=middle;spacingTop=-1;spacingLeft=3;spacingRight=3;rotatable=0;labelPosition=right;points=[];portConstraint=eastwest;strokeColor=inherit;" vertex="1" parent="ZVmhbryaEd-11SPqiZsv-17">
          <mxGeometry y="26" width="310" height="8" as="geometry" />
        </mxCell>
        <mxCell id="ZVmhbryaEd-11SPqiZsv-50" style="edgeStyle=orthogonalEdgeStyle;rounded=0;orthogonalLoop=1;jettySize=auto;html=1;dashed=1;dashPattern=12 12;" edge="1" parent="ZVmhbryaEd-11SPqiZsv-17" source="ZVmhbryaEd-11SPqiZsv-20">
          <mxGeometry relative="1" as="geometry">
            <mxPoint x="770" y="-150" as="targetPoint" />
          </mxGeometry>
        </mxCell>
        <mxCell id="ZVmhbryaEd-11SPqiZsv-20" value="&lt;div&gt;pruebaDeBusqueda(keyword:String , album:Album):&lt;/div&gt;&lt;div&gt;List&amp;lt;ElementoReproducible&amp;gt;&lt;/div&gt;" style="text;strokeColor=none;fillColor=none;align=left;verticalAlign=top;spacingLeft=4;spacingRight=4;overflow=hidden;rotatable=0;points=[[0,0.5],[1,0.5]];portConstraint=eastwest;whiteSpace=wrap;html=1;" vertex="1" parent="ZVmhbryaEd-11SPqiZsv-17">
          <mxGeometry y="34" width="310" height="56" as="geometry" />
        </mxCell>
        <mxCell id="ZVmhbryaEd-11SPqiZsv-25" value="Â«&lt;i&gt;interface&lt;/i&gt;Â»&lt;br&gt;&lt;b&gt;&lt;i&gt;Buscable&lt;/i&gt;&lt;/b&gt;&lt;div&gt;&lt;b&gt;&lt;br&gt;&lt;/b&gt;&lt;/div&gt;&lt;div&gt;&lt;b&gt;&lt;br&gt;&lt;/b&gt;&lt;div&gt;&lt;i&gt;buscar(keyword:String):&lt;/i&gt;&lt;/div&gt;&lt;div&gt;&lt;i&gt;List&amp;lt;ElementoReproducible&amp;gt;&lt;/i&gt;&lt;/div&gt;&lt;/div&gt;" style="html=1;whiteSpace=wrap;" vertex="1" parent="1">
          <mxGeometry x="240" y="-500" width="190" height="110" as="geometry" />
        </mxCell>
        <mxCell id="ZVmhbryaEd-11SPqiZsv-26" value="&lt;div&gt;ElementoReproducible&lt;/div&gt;" style="swimlane;fontStyle=1;align=center;verticalAlign=top;childLayout=stackLayout;horizontal=1;startSize=26;horizontalStack=0;resizeParent=1;resizeParentMax=0;resizeLast=0;collapsible=1;marginBottom=0;whiteSpace=wrap;html=1;" vertex="1" parent="1">
          <mxGeometry x="190" y="-290" width="300" height="190" as="geometry" />
        </mxCell>
        <mxCell id="ZVmhbryaEd-11SPqiZsv-27" value="-nombre:String&lt;div&gt;- nroDeReproducciones:int&lt;/div&gt;" style="text;strokeColor=none;fillColor=none;align=left;verticalAlign=top;spacingLeft=4;spacingRight=4;overflow=hidden;rotatable=0;points=[[0,0.5],[1,0.5]];portConstraint=eastwest;whiteSpace=wrap;html=1;" vertex="1" parent="ZVmhbryaEd-11SPqiZsv-26">
          <mxGeometry y="26" width="300" height="64" as="geometry" />
        </mxCell>
        <mxCell id="ZVmhbryaEd-11SPqiZsv-28" value="" style="line;strokeWidth=1;fillColor=none;align=left;verticalAlign=middle;spacingTop=-1;spacingLeft=3;spacingRight=3;rotatable=0;labelPosition=right;points=[];portConstraint=eastwest;strokeColor=inherit;" vertex="1" parent="ZVmhbryaEd-11SPqiZsv-26">
          <mxGeometry y="90" width="300" height="8" as="geometry" />
        </mxCell>
        <mxCell id="ZVmhbryaEd-11SPqiZsv-29" value="&lt;div&gt;+ getNroDeReproducciones() : int&lt;/div&gt;&lt;div&gt;+ getNombre():String&lt;/div&gt;+reproducir():void&lt;div&gt;+buscar(keyword:String):List&amp;lt;ElementoReproducible&amp;gt;&lt;/div&gt;&lt;div&gt;&lt;br&gt;&lt;/div&gt;" style="text;strokeColor=none;fillColor=none;align=left;verticalAlign=top;spacingLeft=4;spacingRight=4;overflow=hidden;rotatable=0;points=[[0,0.5],[1,0.5]];portConstraint=eastwest;whiteSpace=wrap;html=1;" vertex="1" parent="ZVmhbryaEd-11SPqiZsv-26">
          <mxGeometry y="98" width="300" height="92" as="geometry" />
        </mxCell>
        <mxCell id="ZVmhbryaEd-11SPqiZsv-30" value="&lt;div&gt;PlayList&lt;/div&gt;" style="swimlane;fontStyle=1;align=center;verticalAlign=top;childLayout=stackLayout;horizontal=1;startSize=26;horizontalStack=0;resizeParent=1;resizeParentMax=0;resizeLast=0;collapsible=1;marginBottom=0;whiteSpace=wrap;html=1;" vertex="1" parent="1">
          <mxGeometry x="670" y="80" width="310" height="150" as="geometry" />
        </mxCell>
        <mxCell id="ZVmhbryaEd-11SPqiZsv-31" value="elementos:List&amp;lt;ElementoReproducible&amp;gt;" style="text;strokeColor=none;fillColor=none;align=left;verticalAlign=top;spacingLeft=4;spacingRight=4;overflow=hidden;rotatable=0;points=[[0,0.5],[1,0.5]];portConstraint=eastwest;whiteSpace=wrap;html=1;" vertex="1" parent="ZVmhbryaEd-11SPqiZsv-30">
          <mxGeometry y="26" width="310" height="44" as="geometry" />
        </mxCell>
        <mxCell id="ZVmhbryaEd-11SPqiZsv-32" value="" style="line;strokeWidth=1;fillColor=none;align=left;verticalAlign=middle;spacingTop=-1;spacingLeft=3;spacingRight=3;rotatable=0;labelPosition=right;points=[];portConstraint=eastwest;strokeColor=inherit;" vertex="1" parent="ZVmhbryaEd-11SPqiZsv-30">
          <mxGeometry y="70" width="310" height="8" as="geometry" />
        </mxCell>
        <mxCell id="ZVmhbryaEd-11SPqiZsv-33" value="&lt;div&gt;+ addElemento(el:ElementoReproducible):void&lt;/div&gt;+reproducir():void&lt;div&gt;&lt;div&gt;+buscar(keyword:String):List&amp;lt;ElementoReproducible&amp;gt;&lt;/div&gt;&lt;div&gt;&lt;br&gt;&lt;/div&gt;&lt;/div&gt;" style="text;strokeColor=none;fillColor=none;align=left;verticalAlign=top;spacingLeft=4;spacingRight=4;overflow=hidden;rotatable=0;points=[[0,0.5],[1,0.5]];portConstraint=eastwest;whiteSpace=wrap;html=1;" vertex="1" parent="ZVmhbryaEd-11SPqiZsv-30">
          <mxGeometry y="78" width="310" height="72" as="geometry" />
        </mxCell>
        <mxCell id="ZVmhbryaEd-11SPqiZsv-34" style="edgeStyle=orthogonalEdgeStyle;rounded=0;orthogonalLoop=1;jettySize=auto;html=1;dashed=1;endArrow=blockThin;endFill=0;" edge="1" parent="1" source="ZVmhbryaEd-11SPqiZsv-26">
          <mxGeometry relative="1" as="geometry">
            <mxPoint x="340" y="-380" as="targetPoint" />
          </mxGeometry>
        </mxCell>
        <mxCell id="ZVmhbryaEd-11SPqiZsv-38" style="edgeStyle=orthogonalEdgeStyle;rounded=0;orthogonalLoop=1;jettySize=auto;html=1;entryX=0.973;entryY=1.043;entryDx=0;entryDy=0;entryPerimeter=0;curved=1;" edge="1" parent="1" source="ZVmhbryaEd-11SPqiZsv-30" target="ZVmhbryaEd-11SPqiZsv-29">
          <mxGeometry relative="1" as="geometry">
            <Array as="points">
              <mxPoint x="825" y="-20" />
              <mxPoint x="482" y="-20" />
            </Array>
          </mxGeometry>
        </mxCell>
        <mxCell id="ZVmhbryaEd-11SPqiZsv-42" value="" style="triangle;whiteSpace=wrap;html=1;rotation=-180;" vertex="1" parent="1">
          <mxGeometry x="288" y="253" width="10.44" height="9.74" as="geometry" />
        </mxCell>
        <mxCell id="ZVmhbryaEd-11SPqiZsv-43" value="Lanza" style="text;html=1;align=center;verticalAlign=middle;whiteSpace=wrap;rounded=0;" vertex="1" parent="1">
          <mxGeometry x="290.44" y="242.87" width="60" height="30" as="geometry" />
        </mxCell>
        <mxCell id="ZVmhbryaEd-11SPqiZsv-45" value="1 .. *" style="text;html=1;align=center;verticalAlign=middle;whiteSpace=wrap;rounded=0;" vertex="1" parent="1">
          <mxGeometry x="150" y="240" width="30" height="20" as="geometry" />
        </mxCell>
        <mxCell id="ZVmhbryaEd-11SPqiZsv-46" value="1..1" style="text;html=1;align=center;verticalAlign=middle;whiteSpace=wrap;rounded=0;" vertex="1" parent="1">
          <mxGeometry x="480" y="240" width="30" height="20" as="geometry" />
        </mxCell>
        <mxCell id="ZVmhbryaEd-11SPqiZsv-51" value="1 .. 1" style="text;html=1;align=center;verticalAlign=middle;whiteSpace=wrap;rounded=0;" vertex="1" parent="1">
          <mxGeometry x="26" y="233" width="30" height="20" as="geometry" />
        </mxCell>
        <mxCell id="ZVmhbryaEd-11SPqiZsv-52" value="0 .. *" style="text;html=1;align=center;verticalAlign=middle;whiteSpace=wrap;rounded=0;" vertex="1" parent="1">
          <mxGeometry x="-180" y="236" width="30" height="20" as="geometry" />
        </mxCell>
      </root>
    </mxGraphModel>
  </diagram>
</mxfile>
